<?xml version="1.0" encoding="UTF-8" standalone="no"?>
<!DOCTYPE svg PUBLIC "-//W3C//DTD SVG 1.1//EN"
 "http://www.w3.org/Graphics/SVG/1.1/DTD/svg11.dtd">
<!-- Generated by graphviz version 14.1.3 (20260303.0454)
 -->
<!-- Title: cicd Pages: 1 -->
<svg width="1705pt" height="431pt"
 viewBox="0.00 0.00 1705.00 431.00" xmlns="http://www.w3.org/2000/svg" xmlns:xlink="http://www.w3.org/1999/xlink">
<g id="graph0" class="graph" transform="scale(1 1) rotate(0) translate(14.4 416.4)">
<title>cicd</title>
<g id="clust1" class="cluster">
<title>cluster_test</title>
<path fill="none" stroke="#9aa7ad" stroke-dasharray="5,2" d="M271.43,-8C271.43,-8 442.68,-8 442.68,-8 448.68,-8 454.68,-14 454.68,-20 454.68,-20 454.68,-202 454.68,-202 454.68,-208 448.68,-214 442.68,-214 442.68,-214 271.43,-214 271.43,-214 265.43,-214 259.43,-208 259.43,-202 259.43,-202 259.43,-20 259.43,-20 259.43,-14 265.43,-8 271.43,-8"/>
<text xml:space="preserve" text-anchor="middle" x="357.06" y="-200.5" font-family="Helvetica,sans-Serif" font-size="10.00">test.yaml &#160;&#160;(CI gate · no AWS access)</text>
</g>
<g id="clust2" class="cluster">
<title>cluster_be</title>
<path fill="none" stroke="#357a8a" d="M308.22,-316C308.22,-316 1084.11,-316 1084.11,-316 1090.11,-316 1096.11,-322 1096.11,-328 1096.11,-328 1096.11,-382 1096.11,-382 1096.11,-388 1090.11,-394 1084.11,-394 1084.11,-394 308.22,-394 308.22,-394 302.22,-394 296.22,-388 296.22,-382 296.22,-382 296.22,-328 296.22,-328 296.22,-322 302.22,-316 308.22,-316"/>
<text xml:space="preserve" text-anchor="middle" x="472.97" y="-380.5" font-family="Helvetica,sans-Serif" font-size="10.00">deploy&#45;backend.yaml &#160;&#160;(push: backend/** · template.yaml · config/**)</text>
</g>
<g id="clust3" class="cluster">
<title>cluster_fe</title>
<path fill="none" stroke="#357a8a" d="M1196.86,-316C1196.86,-316 1656.62,-316 1656.62,-316 1662.62,-316 1668.62,-322 1668.62,-328 1668.62,-328 1668.62,-382 1668.62,-382 1668.62,-388 1662.62,-394 1656.62,-394 1656.62,-394 1196.86,-394 1196.86,-394 1190.86,-394 1184.86,-388 1184.86,-382 1184.86,-382 1184.86,-328 1184.86,-328 1184.86,-322 1190.86,-316 1196.86,-316"/>
<text xml:space="preserve" text-anchor="middle" x="1346.61" y="-380.5" font-family="Helvetica,sans-Serif" font-size="10.00">deploy&#45;frontend.yaml &#160;&#160;(workflow_run, after backend succeeds)</text>
</g>
<!-- pr -->
<g id="node1" class="node">
<title>pr</title>
<ellipse fill="#fff3e0" stroke="#e07856" stroke-width="1.4" cx="101.59" cy="-37" rx="97.35" ry="19.73"/>
<text xml:space="preserve" text-anchor="middle" x="101.59" y="-33.3" font-family="Helvetica,sans-Serif" font-size="11.00">Pull Request → main</text>
</g>
<!-- t1 -->
<g id="node3" class="node">
<title>t1</title>
<path fill="#eaf3f6" stroke="#357a8a" stroke-width="1.4" d="M392.77,-57.7C392.77,-57.7 320.35,-57.7 320.35,-57.7 314.35,-57.7 308.35,-51.7 308.35,-45.7 308.35,-45.7 308.35,-28.3 308.35,-28.3 308.35,-22.3 314.35,-16.3 320.35,-16.3 320.35,-16.3 392.77,-16.3 392.77,-16.3 398.77,-16.3 404.77,-22.3 404.77,-28.3 404.77,-28.3 404.77,-45.7 404.77,-45.7 404.77,-51.7 398.77,-57.7 392.77,-57.7"/>
<text xml:space="preserve" text-anchor="middle" x="356.56" y="-40.05" font-family="Helvetica,sans-Serif" font-size="11.00">go test &#45;race</text>
<text xml:space="preserve" text-anchor="middle" x="356.56" y="-26.55" font-family="Helvetica,sans-Serif" font-size="11.00">+ coverage</text>
</g>
<!-- pr&#45;&gt;t1 -->
<g id="edge7" class="edge">
<title>pr&#45;&gt;t1</title>
<path fill="none" stroke="#5b6b73" d="M199.31,-37C232.79,-37 269.21,-37 298.47,-37"/>
<polygon fill="#5b6b73" stroke="#5b6b73" points="298.19,-39.8 306.19,-37 298.19,-34.2 298.19,-39.8"/>
<text xml:space="preserve" text-anchor="middle" x="235.31" y="-39.7" font-family="Helvetica,sans-Serif" font-size="9.00">gate</text>
</g>
<!-- push -->
<g id="node2" class="node">
<title>push</title>
<ellipse fill="#fff3e0" stroke="#e07856" stroke-width="1.4" cx="101.59" cy="-345" rx="101.59" ry="19.73"/>
<text xml:space="preserve" text-anchor="middle" x="101.59" y="-341.3" font-family="Helvetica,sans-Serif" font-size="11.00">Merge / push to main</text>
</g>
<!-- b1 -->
<g id="node6" class="node">
<title>b1</title>
<path fill="#eaf3f6" stroke="#357a8a" stroke-width="1.4" d="M396.89,-365.7C396.89,-365.7 316.22,-365.7 316.22,-365.7 310.22,-365.7 304.22,-359.7 304.22,-353.7 304.22,-353.7 304.22,-336.3 304.22,-336.3 304.22,-330.3 310.22,-324.3 316.22,-324.3 316.22,-324.3 396.89,-324.3 396.89,-324.3 402.89,-324.3 408.89,-330.3 408.89,-336.3 408.89,-336.3 408.89,-353.7 408.89,-353.7 408.89,-359.7 402.89,-365.7 396.89,-365.7"/>
<text xml:space="preserve" text-anchor="middle" x="356.56" y="-348.05" font-family="Helvetica,sans-Serif" font-size="11.00">test</text>
<text xml:space="preserve" text-anchor="middle" x="356.56" y="-334.55" font-family="Helvetica,sans-Serif" font-size="11.00">(re&#45;gate push)</text>
</g>
<!-- push&#45;&gt;b1 -->
<g id="edge8" class="edge">
<title>push&#45;&gt;b1</title>
<path fill="none" stroke="#5b6b73" d="M203.66,-345C234.31,-345 267.04,-345 294.24,-345"/>
<polygon fill="#5b6b73" stroke="#5b6b73" points="294.1,-347.8 302.1,-345 294.1,-342.2 294.1,-347.8"/>
</g>
<!-- t2 -->
<g id="node4" class="node">
<title>t2</title>
<path fill="#eaf3f6" stroke="#357a8a" stroke-width="1.4" d="M402.14,-119C402.14,-119 310.97,-119 310.97,-119 304.97,-119 298.97,-113 298.97,-107 298.97,-107 298.97,-95 298.97,-95 298.97,-89 304.97,-83 310.97,-83 310.97,-83 402.14,-83 402.14,-83 408.14,-83 414.14,-89 414.14,-95 414.14,-95 414.14,-107 414.14,-107 414.14,-113 408.14,-119 402.14,-119"/>
<text xml:space="preserve" text-anchor="middle" x="356.56" y="-97.3" font-family="Helvetica,sans-Serif" font-size="11.00">go vet · gofmt &#45;l</text>
</g>
<!-- t3 -->
<g id="node5" class="node">
<title>t3</title>
<path fill="#eaf3f6" stroke="#357a8a" stroke-width="1.4" d="M395.77,-185.7C395.77,-185.7 317.35,-185.7 317.35,-185.7 311.35,-185.7 305.35,-179.7 305.35,-173.7 305.35,-173.7 305.35,-156.3 305.35,-156.3 305.35,-150.3 311.35,-144.3 317.35,-144.3 317.35,-144.3 395.77,-144.3 395.77,-144.3 401.77,-144.3 407.77,-150.3 407.77,-156.3 407.77,-156.3 407.77,-173.7 407.77,-173.7 407.77,-179.7 401.77,-185.7 395.77,-185.7"/>
<text xml:space="preserve" text-anchor="middle" x="356.56" y="-168.05" font-family="Helvetica,sans-Serif" font-size="11.00">node &#45;&#45;check</text>
<text xml:space="preserve" text-anchor="middle" x="356.56" y="-154.55" font-family="Helvetica,sans-Serif" font-size="11.00">(frontend lint)</text>
</g>
<!-- b2 -->
<g id="node7" class="node">
<title>b2</title>
<path fill="#eaf3f6" stroke="#357a8a" stroke-width="1.4" d="M558.1,-365.7C558.1,-365.7 503.68,-365.7 503.68,-365.7 497.68,-365.7 491.68,-359.7 491.68,-353.7 491.68,-353.7 491.68,-336.3 491.68,-336.3 491.68,-330.3 497.68,-324.3 503.68,-324.3 503.68,-324.3 558.1,-324.3 558.1,-324.3 564.1,-324.3 570.1,-330.3 570.1,-336.3 570.1,-336.3 570.1,-353.7 570.1,-353.7 570.1,-359.7 564.1,-365.7 558.1,-365.7"/>
<text xml:space="preserve" text-anchor="middle" x="530.89" y="-348.05" font-family="Helvetica,sans-Serif" font-size="11.00">discover</text>
<text xml:space="preserve" text-anchor="middle" x="530.89" y="-334.55" font-family="Helvetica,sans-Serif" font-size="11.00">instances</text>
</g>
<!-- b1&#45;&gt;b2 -->
<g id="edge1" class="edge">
<title>b1&#45;&gt;b2</title>
<path fill="none" stroke="#5b6b73" d="M409.26,-345C432.25,-345 459.16,-345 481.72,-345"/>
<polygon fill="#5b6b73" stroke="#5b6b73" points="481.59,-347.8 489.59,-345 481.59,-342.2 481.59,-347.8"/>
</g>
<!-- b3 -->
<g id="node8" class="node">
<title>b3</title>
<path fill="#eaf3f6" stroke="#357a8a" stroke-width="1.4" d="M722.02,-365.7C722.02,-365.7 627.1,-365.7 627.1,-365.7 621.1,-365.7 615.1,-359.7 615.1,-353.7 615.1,-353.7 615.1,-336.3 615.1,-336.3 615.1,-330.3 621.1,-324.3 627.1,-324.3 627.1,-324.3 722.02,-324.3 722.02,-324.3 728.02,-324.3 734.02,-330.3 734.02,-336.3 734.02,-336.3 734.02,-353.7 734.02,-353.7 734.02,-359.7 728.02,-365.7 722.02,-365.7"/>
<text xml:space="preserve" text-anchor="middle" x="674.56" y="-348.05" font-family="Helvetica,sans-Serif" font-size="11.00">build arm64</text>
<text xml:space="preserve" text-anchor="middle" x="674.56" y="-334.55" font-family="Helvetica,sans-Serif" font-size="11.00">Lambda zip → S3</text>
</g>
<!-- b2&#45;&gt;b3 -->
<g id="edge2" class="edge">
<title>b2&#45;&gt;b3</title>
<path fill="none" stroke="#5b6b73" d="M570.6,-345C581.27,-345 593.17,-345 604.98,-345"/>
<polygon fill="#5b6b73" stroke="#5b6b73" points="604.9,-347.8 612.9,-345 604.9,-342.2 604.9,-347.8"/>
</g>
<!-- b4 -->
<g id="node9" class="node">
<title>b4</title>
<path fill="#cfe6ec" stroke="#357a8a" stroke-width="1.4" d="M915.94,-365.7C915.94,-365.7 791.02,-365.7 791.02,-365.7 785.02,-365.7 779.02,-359.7 779.02,-353.7 779.02,-353.7 779.02,-336.3 779.02,-336.3 779.02,-330.3 785.02,-324.3 791.02,-324.3 791.02,-324.3 915.94,-324.3 915.94,-324.3 921.94,-324.3 927.94,-330.3 927.94,-336.3 927.94,-336.3 927.94,-353.7 927.94,-353.7 927.94,-359.7 921.94,-365.7 915.94,-365.7"/>
<text xml:space="preserve" text-anchor="middle" x="853.48" y="-348.05" font-family="Helvetica,sans-Serif" font-size="11.00">deploy (matrix)</text>
<text xml:space="preserve" text-anchor="middle" x="853.48" y="-334.55" font-family="Helvetica,sans-Serif" font-size="11.00">cloudformation deploy</text>
</g>
<!-- b3&#45;&gt;b4 -->
<g id="edge3" class="edge">
<title>b3&#45;&gt;b4</title>
<path fill="none" stroke="#5b6b73" d="M734.47,-345C745.58,-345 757.38,-345 769.07,-345"/>
<polygon fill="#5b6b73" stroke="#5b6b73" points="768.89,-347.8 776.89,-345 768.89,-342.2 768.89,-347.8"/>
</g>
<!-- oidc -->
<g id="node14" class="node">
<title>oidc</title>
<polygon fill="#fdf6e3" stroke="#b58900" stroke-width="1.4" points="189.18,-265.32 8.01,-265.32 8.01,-212.68 195.18,-212.68 195.18,-259.32 189.18,-265.32"/>
<polyline fill="none" stroke="#b58900" stroke-width="1.4" points="189.18,-265.32 189.18,-259.32"/>
<polyline fill="none" stroke="#b58900" stroke-width="1.4" points="195.18,-259.32 189.18,-259.32"/>
<text xml:space="preserve" text-anchor="middle" x="101.59" y="-248.62" font-family="Helvetica,sans-Serif" font-size="10.00">GitHub OIDC</text>
<text xml:space="preserve" text-anchor="middle" x="101.59" y="-235.88" font-family="Helvetica,sans-Serif" font-size="10.00">assume passbook&#45;github&#45;actions</text>
<text xml:space="preserve" text-anchor="middle" x="101.59" y="-223.12" font-family="Helvetica,sans-Serif" font-size="10.00">(short&#45;lived, no stored keys)</text>
</g>
<!-- b3&#45;&gt;oidc -->
<g id="edge10" class="edge">
<title>b3&#45;&gt;oidc</title>
<path fill="none" stroke="#5b6b73" stroke-dasharray="5,2" d="M614.64,-324.48C600.19,-319.93 584.69,-315.44 570.1,-312 441.78,-281.71 290.6,-260.7 195.66,-249.25"/>
</g>
<!-- b5 -->
<g id="node10" class="node">
<title>b5</title>
<path fill="#eaf3f6" stroke="#357a8a" stroke-width="1.4" d="M1076.11,-365.7C1076.11,-365.7 984.94,-365.7 984.94,-365.7 978.94,-365.7 972.94,-359.7 972.94,-353.7 972.94,-353.7 972.94,-336.3 972.94,-336.3 972.94,-330.3 978.94,-324.3 984.94,-324.3 984.94,-324.3 1076.11,-324.3 1076.11,-324.3 1082.11,-324.3 1088.11,-330.3 1088.11,-336.3 1088.11,-336.3 1088.11,-353.7 1088.11,-353.7 1088.11,-359.7 1082.11,-365.7 1076.11,-365.7"/>
<text xml:space="preserve" text-anchor="middle" x="1030.53" y="-348.05" font-family="Helvetica,sans-Serif" font-size="11.00">prune artifacts</text>
<text xml:space="preserve" text-anchor="middle" x="1030.53" y="-334.55" font-family="Helvetica,sans-Serif" font-size="11.00">(keep newest 2)</text>
</g>
<!-- b4&#45;&gt;b5 -->
<g id="edge4" class="edge">
<title>b4&#45;&gt;b5</title>
<path fill="none" stroke="#5b6b73" d="M928.46,-345C939.91,-345 951.67,-345 962.94,-345"/>
<polygon fill="#5b6b73" stroke="#5b6b73" points="962.76,-347.8 970.76,-345 962.76,-342.2 962.76,-347.8"/>
</g>
<!-- b4&#45;&gt;oidc -->
<g id="edge11" class="edge">
<title>b4&#45;&gt;oidc</title>
<path fill="none" stroke="#5b6b73" stroke-dasharray="5,2" d="M778.41,-323.63C763.74,-319.61 748.43,-315.55 734.02,-312 610.73,-281.61 580.68,-267.74 454.68,-252 367.28,-241.08 266.8,-238.34 195.61,-238.02"/>
</g>
<!-- f1 -->
<g id="node11" class="node">
<title>f1</title>
<path fill="#eaf3f6" stroke="#357a8a" stroke-width="1.4" d="M1311.78,-365.7C1311.78,-365.7 1204.86,-365.7 1204.86,-365.7 1198.86,-365.7 1192.86,-359.7 1192.86,-353.7 1192.86,-353.7 1192.86,-336.3 1192.86,-336.3 1192.86,-330.3 1198.86,-324.3 1204.86,-324.3 1204.86,-324.3 1311.78,-324.3 1311.78,-324.3 1317.78,-324.3 1323.78,-330.3 1323.78,-336.3 1323.78,-336.3 1323.78,-353.7 1323.78,-353.7 1323.78,-359.7 1317.78,-365.7 1311.78,-365.7"/>
<text xml:space="preserve" text-anchor="middle" x="1258.32" y="-348.05" font-family="Helvetica,sans-Serif" font-size="11.00">inject config.js,</text>
<text xml:space="preserve" text-anchor="middle" x="1258.32" y="-334.55" font-family="Helvetica,sans-Serif" font-size="11.00">theme.css, version</text>
</g>
<!-- b5&#45;&gt;f1 -->
<g id="edge9" class="edge">
<title>b5&#45;&gt;f1</title>
<path fill="none" stroke="#357a8a" stroke-width="2" d="M1088.79,-345C1117.45,-345 1152.48,-345 1183.16,-345"/>
<polygon fill="#357a8a" stroke="#357a8a" stroke-width="2" points="1181.5,-347.8 1189.5,-345 1181.5,-342.2 1181.5,-347.8"/>
<text xml:space="preserve" text-anchor="middle" x="1140.49" y="-358.95" font-family="Helvetica,sans-Serif" font-size="9.00">workflow_run</text>
<text xml:space="preserve" text-anchor="middle" x="1140.49" y="-347.7" font-family="Helvetica,sans-Serif" font-size="9.00">(on success)</text>
</g>
<!-- f2 -->
<g id="node12" class="node">
<title>f2</title>
<path fill="#eaf3f6" stroke="#357a8a" stroke-width="1.4" d="M1491.45,-365.7C1491.45,-365.7 1380.78,-365.7 1380.78,-365.7 1374.78,-365.7 1368.78,-359.7 1368.78,-353.7 1368.78,-353.7 1368.78,-336.3 1368.78,-336.3 1368.78,-330.3 1374.78,-324.3 1380.78,-324.3 1380.78,-324.3 1491.45,-324.3 1491.45,-324.3 1497.45,-324.3 1503.45,-330.3 1503.45,-336.3 1503.45,-336.3 1503.45,-353.7 1503.45,-353.7 1503.45,-359.7 1497.45,-365.7 1491.45,-365.7"/>
<text xml:space="preserve" text-anchor="middle" x="1436.12" y="-348.05" font-family="Helvetica,sans-Serif" font-size="11.00">tighten CSP,</text>
<text xml:space="preserve" text-anchor="middle" x="1436.12" y="-334.55" font-family="Helvetica,sans-Serif" font-size="11.00">generate PNG icons</text>
</g>
<!-- f1&#45;&gt;f2 -->
<g id="edge5" class="edge">
<title>f1&#45;&gt;f2</title>
<path fill="none" stroke="#5b6b73" d="M1324.28,-345C1335.63,-345 1347.52,-345 1359.13,-345"/>
<polygon fill="#5b6b73" stroke="#5b6b73" points="1358.85,-347.8 1366.85,-345 1358.85,-342.2 1358.85,-347.8"/>
</g>
<!-- f3 -->
<g id="node13" class="node">
<title>f3</title>
<path fill="#cfe6ec" stroke="#357a8a" stroke-width="1.4" d="M1648.62,-365.7C1648.62,-365.7 1560.45,-365.7 1560.45,-365.7 1554.45,-365.7 1548.45,-359.7 1548.45,-353.7 1548.45,-353.7 1548.45,-336.3 1548.45,-336.3 1548.45,-330.3 1554.45,-324.3 1560.45,-324.3 1560.45,-324.3 1648.62,-324.3 1648.62,-324.3 1654.62,-324.3 1660.62,-330.3 1660.62,-336.3 1660.62,-336.3 1660.62,-353.7 1660.62,-353.7 1660.62,-359.7 1654.62,-365.7 1648.62,-365.7"/>
<text xml:space="preserve" text-anchor="middle" x="1604.54" y="-348.05" font-family="Helvetica,sans-Serif" font-size="11.00">deploy&#45;pages</text>
<text xml:space="preserve" text-anchor="middle" x="1604.54" y="-334.55" font-family="Helvetica,sans-Serif" font-size="11.00">→ GitHub Pages</text>
</g>
<!-- f2&#45;&gt;f3 -->
<g id="edge6" class="edge">
<title>f2&#45;&gt;f3</title>
<path fill="none" stroke="#5b6b73" d="M1503.85,-345C1515.29,-345 1527.17,-345 1538.57,-345"/>
<polygon fill="#5b6b73" stroke="#5b6b73" points="1538.49,-347.8 1546.49,-345 1538.49,-342.2 1538.49,-347.8"/>
</g>
</g>
</svg>
