<?xml version="1.0" encoding="UTF-8" standalone="no"?>
<!DOCTYPE svg PUBLIC "-//W3C//DTD SVG 1.1//EN"
 "http://www.w3.org/Graphics/SVG/1.1/DTD/svg11.dtd">
<!-- Generated by graphviz version 14.1.3 (20260303.0454)
 -->
<!-- Title: multi Pages: 1 -->
<svg width="1061pt" height="221pt"
 viewBox="0.00 0.00 1061.00 221.00" xmlns="http://www.w3.org/2000/svg" xmlns:xlink="http://www.w3.org/1999/xlink">
<g id="graph0" class="graph" transform="scale(1 1) rotate(0) translate(14.4 206.1)">
<title>multi</title>
<g id="clust1" class="cluster">
<title>cluster_kids</title>
<path fill="none" stroke="#5b7fd9" d="M660.72,-105.7C660.72,-105.7 1012.68,-105.7 1012.68,-105.7 1018.68,-105.7 1024.68,-111.7 1024.68,-117.7 1024.68,-117.7 1024.68,-171.7 1024.68,-171.7 1024.68,-177.7 1018.68,-183.7 1012.68,-183.7 1012.68,-183.7 660.72,-183.7 660.72,-183.7 654.72,-183.7 648.72,-177.7 648.72,-171.7 648.72,-171.7 648.72,-117.7 648.72,-117.7 648.72,-111.7 654.72,-105.7 660.72,-105.7"/>
<text xml:space="preserve" text-anchor="middle" x="717.84" y="-170.2" font-family="Helvetica,sans-Serif" font-size="10.00">kids &#160;&#160;→ &#160;&#160;/passbook/kids/</text>
</g>
<g id="clust2" class="cluster">
<title>cluster_eat</title>
<path fill="none" stroke="#e07856" d="M653.59,-19.7C653.59,-19.7 1012.68,-19.7 1012.68,-19.7 1018.68,-19.7 1024.68,-25.7 1024.68,-31.7 1024.68,-31.7 1024.68,-85.7 1024.68,-85.7 1024.68,-91.7 1018.68,-97.7 1012.68,-97.7 1012.68,-97.7 653.59,-97.7 653.59,-97.7 647.59,-97.7 641.59,-91.7 641.59,-85.7 641.59,-85.7 641.59,-31.7 641.59,-31.7 641.59,-25.7 647.59,-19.7 653.59,-19.7"/>
<text xml:space="preserve" text-anchor="middle" x="721.97" y="-84.2" font-family="Helvetica,sans-Serif" font-size="10.00">eatout &#160;&#160;→ &#160;&#160;/passbook/eatout/</text>
</g>
<!-- repo -->
<g id="node1" class="node">
<title>repo</title>
<polygon fill="#eaf3f6" stroke="#357a8a" stroke-width="1.4" points="185.3,-111.4 182.3,-115.4 161.3,-115.4 158.3,-111.4 30.38,-111.4 30.38,-70 185.3,-70 185.3,-111.4"/>
<text xml:space="preserve" text-anchor="middle" x="107.84" y="-93.75" font-family="Helvetica,sans-Serif" font-size="11.00">one repository</text>
<text xml:space="preserve" text-anchor="middle" x="107.84" y="-80.25" font-family="Helvetica,sans-Serif" font-size="11.00">config/instances/*.yaml</text>
</g>
<!-- ci -->
<g id="node2" class="node">
<title>ci</title>
<path fill="#fdf6e3" stroke="#b58900" stroke-width="1.4" d="M502.59,-111.4C502.59,-111.4 351.42,-111.4 351.42,-111.4 345.42,-111.4 339.42,-105.4 339.42,-99.4 339.42,-99.4 339.42,-82 339.42,-82 339.42,-76 345.42,-70 351.42,-70 351.42,-70 502.59,-70 502.59,-70 508.59,-70 514.59,-76 514.59,-82 514.59,-82 514.59,-99.4 514.59,-99.4 514.59,-105.4 508.59,-111.4 502.59,-111.4"/>
<text xml:space="preserve" text-anchor="middle" x="427.01" y="-93.75" font-family="Helvetica,sans-Serif" font-size="11.00">CI matrix</text>
<text xml:space="preserve" text-anchor="middle" x="427.01" y="-80.25" font-family="Helvetica,sans-Serif" font-size="11.00">auto&#45;discovers every YAML</text>
</g>
<!-- repo&#45;&gt;ci -->
<g id="edge3" class="edge">
<title>repo&#45;&gt;ci</title>
<path fill="none" stroke="#5b6b73" d="M185.61,-90.7C228.84,-90.7 283.22,-90.7 329.33,-90.7"/>
<polygon fill="#5b6b73" stroke="#5b6b73" points="329.22,-93.5 337.22,-90.7 329.22,-87.9 329.22,-93.5"/>
</g>
<!-- k1 -->
<g id="node3" class="node">
<title>k1</title>
<path fill="#eaf0fb" stroke="#5b7fd9" stroke-width="1.4" d="M776.39,-155.4C776.39,-155.4 668.72,-155.4 668.72,-155.4 662.72,-155.4 656.72,-149.4 656.72,-143.4 656.72,-143.4 656.72,-126 656.72,-126 656.72,-120 662.72,-114 668.72,-114 668.72,-114 776.39,-114 776.39,-114 782.39,-114 788.39,-120 788.39,-126 788.39,-126 788.39,-143.4 788.39,-143.4 788.39,-149.4 782.39,-155.4 776.39,-155.4"/>
<text xml:space="preserve" text-anchor="middle" x="722.55" y="-137.75" font-family="Helvetica,sans-Serif" font-size="11.00">CFN stack</text>
<text xml:space="preserve" text-anchor="middle" x="722.55" y="-124.25" font-family="Helvetica,sans-Serif" font-size="11.00">passbook&#45;kids&#45;prod</text>
</g>
<!-- ci&#45;&gt;k1 -->
<g id="edge4" class="edge">
<title>ci&#45;&gt;k1</title>
<path fill="none" stroke="#5b6b73" d="M515.28,-103.78C557.15,-110.06 606.78,-117.5 646.87,-123.51"/>
<polygon fill="#5b6b73" stroke="#5b6b73" points="646.23,-126.24 654.56,-124.66 647.06,-120.7 646.23,-126.24"/>
<text xml:space="preserve" text-anchor="middle" x="582.09" y="-121.91" font-family="Helvetica,sans-Serif" font-size="9.00">instance = kids</text>
</g>
<!-- e1 -->
<g id="node5" class="node">
<title>e1</title>
<path fill="#fff0ea" stroke="#e07856" stroke-width="1.4" d="M783.51,-69.4C783.51,-69.4 661.59,-69.4 661.59,-69.4 655.59,-69.4 649.59,-63.4 649.59,-57.4 649.59,-57.4 649.59,-40 649.59,-40 649.59,-34 655.59,-28 661.59,-28 661.59,-28 783.51,-28 783.51,-28 789.51,-28 795.51,-34 795.51,-40 795.51,-40 795.51,-57.4 795.51,-57.4 795.51,-63.4 789.51,-69.4 783.51,-69.4"/>
<text xml:space="preserve" text-anchor="middle" x="722.55" y="-51.75" font-family="Helvetica,sans-Serif" font-size="11.00">CFN stack</text>
<text xml:space="preserve" text-anchor="middle" x="722.55" y="-38.25" font-family="Helvetica,sans-Serif" font-size="11.00">passbook&#45;eatout&#45;prod</text>
</g>
<!-- ci&#45;&gt;e1 -->
<g id="edge5" class="edge">
<title>ci&#45;&gt;e1</title>
<path fill="none" stroke="#5b6b73" d="M515.28,-78.21C554.71,-72.57 601.03,-65.94 639.78,-60.4"/>
<polygon fill="#5b6b73" stroke="#5b6b73" points="639.93,-63.21 647.45,-59.3 639.13,-57.66 639.93,-63.21"/>
<text xml:space="preserve" text-anchor="middle" x="582.09" y="-76.16" font-family="Helvetica,sans-Serif" font-size="9.00">instance = eatout</text>
</g>
<!-- boot -->
<g id="node7" class="node">
<title>boot</title>
<polygon fill="#f1f1f1" stroke="#5b6b73" stroke-width="1.4" points="215.67,-41.4 4,-41.4 0,-37.4 0,0 211.67,0 215.67,-4 215.67,-41.4"/>
<polyline fill="none" stroke="#5b6b73" stroke-width="1.4" points="211.67,-37.4 0,-37.4"/>
<polyline fill="none" stroke="#5b6b73" stroke-width="1.4" points="211.67,-37.4 211.67,0"/>
<polyline fill="none" stroke="#5b6b73" stroke-width="1.4" points="211.67,-37.4 215.67,-41.4"/>
<text xml:space="preserve" text-anchor="middle" x="107.84" y="-23.75" font-family="Helvetica,sans-Serif" font-size="11.00">shared bootstrap stack</text>
<text xml:space="preserve" text-anchor="middle" x="107.84" y="-10.25" font-family="Helvetica,sans-Serif" font-size="11.00">S3 artifacts · GitHub OIDC · CI role</text>
</g>
<!-- ci&#45;&gt;boot -->
<g id="edge6" class="edge">
<title>ci&#45;&gt;boot</title>
<path fill="none" stroke="#5b6b73" stroke-dasharray="5,2" d="M338.87,-71.47C300.5,-63 255.08,-52.98 214.77,-44.08"/>
<polygon fill="#5b6b73" stroke="#5b6b73" points="215.61,-41.4 207.2,-42.41 214.41,-46.87 215.61,-41.4"/>
<text xml:space="preserve" text-anchor="middle" x="277.55" y="-66.73" font-family="Helvetica,sans-Serif" font-size="9.00">assumes role in</text>
</g>
<!-- k2 -->
<g id="node4" class="node">
<title>k2</title>
<path fill="#eaf0fb" stroke="#5b7fd9" stroke-width="1.4" d="M1004.68,-155.4C1004.68,-155.4 862.51,-155.4 862.51,-155.4 856.51,-155.4 850.51,-149.4 850.51,-143.4 850.51,-143.4 850.51,-126 850.51,-126 850.51,-120 856.51,-114 862.51,-114 862.51,-114 1004.68,-114 1004.68,-114 1010.68,-114 1016.68,-120 1016.68,-126 1016.68,-126 1016.68,-143.4 1016.68,-143.4 1016.68,-149.4 1010.68,-155.4 1004.68,-155.4"/>
<text xml:space="preserve" text-anchor="middle" x="933.6" y="-137.75" font-family="Helvetica,sans-Serif" font-size="11.00">DynamoDB · Lambda(Go)</text>
<text xml:space="preserve" text-anchor="middle" x="933.6" y="-124.25" font-family="Helvetica,sans-Serif" font-size="11.00">· HTTP API</text>
</g>
<!-- k1&#45;&gt;k2 -->
<g id="edge1" class="edge">
<title>k1&#45;&gt;k2</title>
<path fill="none" stroke="#5b6b73" d="M788.83,-134.7C805.36,-134.7 823.42,-134.7 840.98,-134.7"/>
<polygon fill="#5b6b73" stroke="#5b6b73" points="840.6,-137.5 848.6,-134.7 840.6,-131.9 840.6,-137.5"/>
</g>
<!-- e2 -->
<g id="node6" class="node">
<title>e2</title>
<path fill="#fff0ea" stroke="#e07856" stroke-width="1.4" d="M1004.68,-69.4C1004.68,-69.4 862.51,-69.4 862.51,-69.4 856.51,-69.4 850.51,-63.4 850.51,-57.4 850.51,-57.4 850.51,-40 850.51,-40 850.51,-34 856.51,-28 862.51,-28 862.51,-28 1004.68,-28 1004.68,-28 1010.68,-28 1016.68,-34 1016.68,-40 1016.68,-40 1016.68,-57.4 1016.68,-57.4 1016.68,-63.4 1010.68,-69.4 1004.68,-69.4"/>
<text xml:space="preserve" text-anchor="middle" x="933.6" y="-51.75" font-family="Helvetica,sans-Serif" font-size="11.00">DynamoDB · Lambda(Go)</text>
<text xml:space="preserve" text-anchor="middle" x="933.6" y="-38.25" font-family="Helvetica,sans-Serif" font-size="11.00">· HTTP API</text>
</g>
<!-- e1&#45;&gt;e2 -->
<g id="edge2" class="edge">
<title>e1&#45;&gt;e2</title>
<path fill="none" stroke="#5b6b73" d="M796.08,-48.7C810.53,-48.7 825.89,-48.7 840.89,-48.7"/>
<polygon fill="#5b6b73" stroke="#5b6b73" points="840.65,-51.5 848.65,-48.7 840.65,-45.9 840.65,-51.5"/>
</g>
</g>
</svg>
