<?xml version="1.0" standalone="no"?>
<!DOCTYPE svg PUBLIC "-//W3C//DTD SVG 20010904//EN"
 "http://www.w3.org/TR/2001/REC-SVG-20010904/DTD/svg10.dtd">
<svg version="1.0" xmlns="http://www.w3.org/2000/svg"
 width="114.000000pt" height="114.000000pt" viewBox="0 0 114.000000 114.000000"
 preserveAspectRatio="xMidYMid meet">
<metadata>
Created by potrace 1.11, written by Peter Selinger 2001-2013
</metadata>
<g transform="translate(0.000000,114.000000) scale(0.100000,-0.100000)"
fill="#000000" stroke="none">
<path d="M158 991 l-33 -29 0 -397 0 -397 33 -29 32 -29 381 0 c412 0 423 1
447 55 16 35 17 763 1 798 -25 56 -34 57 -448 57 l-381 0 -32 -29z m810 -17
l22 -15 0 -394 0 -394 -22 -15 c-19 -14 -74 -16 -395 -16 -360 0 -374 1 -393
20 -19 19 -20 33 -20 405 0 372 1 386 20 405 19 19 33 20 393 20 321 0 376 -2
395 -16z"/>
<path d="M482 698 c-45 -112 -111 -275 -146 -363 -36 -87 -64 -160 -63 -161 1
-1 49 34 107 77 58 43 124 92 146 109 l42 29 146 -109 c80 -61 146 -108 146
-105 0 10 -283 710 -290 718 -4 4 -43 -83 -88 -195z m172 -148 c44 -110 77
-202 74 -205 -2 -3 -38 20 -79 50 -41 30 -78 55 -83 55 -5 0 -43 -25 -83 -56
-41 -31 -77 -54 -79 -51 -3 2 27 85 67 183 39 99 75 189 80 202 5 12 12 22 16
22 5 -1 44 -90 87 -200z"/>
</g>
</svg>
